<svg xmlns="http://www.w3.org/2000/svg" width="980" height="620" viewBox="0 0 980 620">
<style>
text{font-family:-apple-system,BlinkMacSystemFont,'Segoe UI',sans-serif;fill:#111827}
.axis{stroke:#111827;stroke-width:1.2}
.grid{stroke:#e5e7eb;stroke-width:1}
.label{font-size:14px;fill:#374151}
.tick{font-size:12px;fill:#4b5563}
.title{font-size:22px;font-weight:700}
.legend{font-size:13px;fill:#111827}
</style>
<rect x="0" y="0" width="980" height="620" fill="#ffffff"/>
<text class="title" x="92" y="34">Shot budget vs final theta-MSE</text>
<line class="grid" x1="92" y1="534.00" x2="720" y2="534.00"/>
<text class="tick" x="82" y="538.00" text-anchor="end">0</text>
<line class="grid" x1="92" y1="438.40" x2="720" y2="438.40"/>
<text class="tick" x="82" y="442.40" text-anchor="end">0.0208</text>
<line class="grid" x1="92" y1="342.80" x2="720" y2="342.80"/>
<text class="tick" x="82" y="346.80" text-anchor="end">0.0416</text>
<line class="grid" x1="92" y1="247.20" x2="720" y2="247.20"/>
<text class="tick" x="82" y="251.20" text-anchor="end">0.0623</text>
<line class="grid" x1="92" y1="151.60" x2="720" y2="151.60"/>
<text class="tick" x="82" y="155.60" text-anchor="end">0.0831</text>
<line class="grid" x1="92" y1="56.00" x2="720" y2="56.00"/>
<text class="tick" x="82" y="60.00" text-anchor="end">0.104</text>
<line class="grid" x1="92.00" y1="56" x2="92.00" y2="534"/>
<text class="tick" x="92.00" y="558" text-anchor="middle">32</text>
<line class="grid" x1="249.00" y1="56" x2="249.00" y2="534"/>
<text class="tick" x="249.00" y="558" text-anchor="middle">64</text>
<line class="grid" x1="406.00" y1="56" x2="406.00" y2="534"/>
<text class="tick" x="406.00" y="558" text-anchor="middle">128</text>
<line class="grid" x1="563.00" y1="56" x2="563.00" y2="534"/>
<text class="tick" x="563.00" y="558" text-anchor="middle">256</text>
<line class="grid" x1="720.00" y1="56" x2="720.00" y2="534"/>
<text class="tick" x="720.00" y="558" text-anchor="middle">512</text>
<line class="axis" x1="92" y1="534" x2="720" y2="534"/>
<line class="axis" x1="92" y1="56" x2="92" y2="534"/>
<text class="label" x="406.0" y="592" text-anchor="middle">Shots per measurement</text>
<text class="label" transform="translate(24 295.0) rotate(-90)" text-anchor="middle">Median final theta-MSE</text>
<polygon points="92.00,255.60 249.00,270.47 406.00,292.62 563.00,294.92 720.00,318.96 720.00,489.17 563.00,474.09 406.00,458.14 249.00,438.18 92.00,421.17" fill="#2563eb" opacity="0.13"/>
<polyline points="92.00,338.39 249.00,354.33 406.00,375.38 563.00,384.50 720.00,404.07" fill="none" stroke="#2563eb" stroke-width="2.8" stroke-linejoin="round" stroke-linecap="round"/>
<circle cx="92.00" cy="338.39" r="4" fill="#2563eb"/>
<circle cx="249.00" cy="354.33" r="4" fill="#2563eb"/>
<circle cx="406.00" cy="375.38" r="4" fill="#2563eb"/>
<circle cx="563.00" cy="384.50" r="4" fill="#2563eb"/>
<circle cx="720.00" cy="404.07" r="4" fill="#2563eb"/>
<line x1="754" y1="80" x2="776" y2="80" stroke="#2563eb" stroke-width="3" stroke-linecap="round"/>
<text class="legend" x="786" y="84">random</text>
<polygon points="92.00,237.51 249.00,261.96 406.00,287.30 563.00,311.16 720.00,346.07 720.00,482.01 563.00,460.29 406.00,437.43 249.00,414.79 92.00,388.32" fill="#dc2626" opacity="0.13"/>
<polyline points="92.00,312.91 249.00,338.38 406.00,362.36 563.00,385.73 720.00,414.04" fill="none" stroke="#dc2626" stroke-width="2.8" stroke-linejoin="round" stroke-linecap="round"/>
<circle cx="92.00" cy="312.91" r="4" fill="#dc2626"/>
<circle cx="249.00" cy="338.38" r="4" fill="#dc2626"/>
<circle cx="406.00" cy="362.36" r="4" fill="#dc2626"/>
<circle cx="563.00" cy="385.73" r="4" fill="#dc2626"/>
<circle cx="720.00" cy="414.04" r="4" fill="#dc2626"/>
<line x1="754" y1="104" x2="776" y2="104" stroke="#dc2626" stroke-width="3" stroke-linecap="round"/>
<text class="legend" x="786" y="108">fixed</text>
<polygon points="92.00,321.29 249.00,343.62 406.00,355.52 563.00,385.00 720.00,386.59 720.00,520.64 563.00,510.42 406.00,495.41 249.00,481.99 92.00,465.00" fill="#16a34a" opacity="0.13"/>
<polyline points="92.00,393.14 249.00,412.81 406.00,425.47 563.00,447.71 720.00,453.61" fill="none" stroke="#16a34a" stroke-width="2.8" stroke-linejoin="round" stroke-linecap="round"/>
<circle cx="92.00" cy="393.14" r="4" fill="#16a34a"/>
<circle cx="249.00" cy="412.81" r="4" fill="#16a34a"/>
<circle cx="406.00" cy="425.47" r="4" fill="#16a34a"/>
<circle cx="563.00" cy="447.71" r="4" fill="#16a34a"/>
<circle cx="720.00" cy="453.61" r="4" fill="#16a34a"/>
<line x1="754" y1="128" x2="776" y2="128" stroke="#16a34a" stroke-width="3" stroke-linecap="round"/>
<text class="legend" x="786" y="132">fixed optimized</text>
<polygon points="92.00,283.90 249.00,295.41 406.00,321.50 563.00,325.22 720.00,344.59 720.00,498.65 563.00,488.90 406.00,477.11 249.00,459.13 92.00,440.05" fill="#9333ea" opacity="0.13"/>
<polyline points="92.00,361.98 249.00,377.27 406.00,399.31 563.00,407.06 720.00,421.62" fill="none" stroke="#9333ea" stroke-width="2.8" stroke-linejoin="round" stroke-linecap="round"/>
<circle cx="92.00" cy="361.98" r="4" fill="#9333ea"/>
<circle cx="249.00" cy="377.27" r="4" fill="#9333ea"/>
<circle cx="406.00" cy="399.31" r="4" fill="#9333ea"/>
<circle cx="563.00" cy="407.06" r="4" fill="#9333ea"/>
<circle cx="720.00" cy="421.62" r="4" fill="#9333ea"/>
<line x1="754" y1="152" x2="776" y2="152" stroke="#9333ea" stroke-width="3" stroke-linecap="round"/>
<text class="legend" x="786" y="156">fisher greedy fast</text>
<polygon points="92.00,215.08 249.00,214.63 406.00,203.97 563.00,208.41 720.00,210.87 720.00,444.83 563.00,439.15 406.00,417.50 249.00,414.86 92.00,401.85" fill="#ea580c" opacity="0.13"/>
<polyline points="92.00,308.47 249.00,314.74 406.00,310.74 563.00,323.78 720.00,327.85" fill="none" stroke="#ea580c" stroke-width="2.8" stroke-linejoin="round" stroke-linecap="round"/>
<circle cx="92.00" cy="308.47" r="4" fill="#ea580c"/>
<circle cx="249.00" cy="314.74" r="4" fill="#ea580c"/>
<circle cx="406.00" cy="310.74" r="4" fill="#ea580c"/>
<circle cx="563.00" cy="323.78" r="4" fill="#ea580c"/>
<circle cx="720.00" cy="327.85" r="4" fill="#ea580c"/>
<line x1="754" y1="176" x2="776" y2="176" stroke="#ea580c" stroke-width="3" stroke-linecap="round"/>
<text class="legend" x="786" y="180">bald 2step fast</text>
<polygon points="92.00,130.15 249.00,125.42 406.00,119.11 563.00,109.06 720.00,99.48 720.00,299.48 563.00,298.27 406.00,298.63 249.00,299.67 92.00,297.36" fill="#0891b2" opacity="0.13"/>
<polyline points="92.00,213.76 249.00,212.54 406.00,208.87 563.00,203.66 720.00,199.48" fill="none" stroke="#0891b2" stroke-width="2.8" stroke-linejoin="round" stroke-linecap="round"/>
<circle cx="92.00" cy="213.76" r="4" fill="#0891b2"/>
<circle cx="249.00" cy="212.54" r="4" fill="#0891b2"/>
<circle cx="406.00" cy="208.87" r="4" fill="#0891b2"/>
<circle cx="563.00" cy="203.66" r="4" fill="#0891b2"/>
<circle cx="720.00" cy="199.48" r="4" fill="#0891b2"/>
<line x1="754" y1="200" x2="776" y2="200" stroke="#0891b2" stroke-width="3" stroke-linecap="round"/>
<text class="legend" x="786" y="204">symqnet</text>
<polygon points="92.00,148.01 249.00,144.61 406.00,128.30 563.00,113.71 720.00,90.42 720.00,332.70 563.00,341.30 406.00,337.24 249.00,335.82 92.00,325.19" fill="#4b5563" opacity="0.13"/>
<polyline points="92.00,236.60 249.00,240.21 406.00,232.77 563.00,227.50 720.00,211.56" fill="none" stroke="#4b5563" stroke-width="2.8" stroke-linejoin="round" stroke-linecap="round"/>
<circle cx="92.00" cy="236.60" r="4" fill="#4b5563"/>
<circle cx="249.00" cy="240.21" r="4" fill="#4b5563"/>
<circle cx="406.00" cy="232.77" r="4" fill="#4b5563"/>
<circle cx="563.00" cy="227.50" r="4" fill="#4b5563"/>
<circle cx="720.00" cy="211.56" r="4" fill="#4b5563"/>
<line x1="754" y1="224" x2="776" y2="224" stroke="#4b5563" stroke-width="3" stroke-linecap="round"/>
<text class="legend" x="786" y="228">dad transformer</text>
</svg>